<svg width="16" height="16" version="1.1" xmlns="http://www.w3.org/2000/svg">
  <defs>
    <style id="current-color-scheme" type="text/css">.ColorScheme-Text { color:#ebdbb2; } .ColorScheme-Highlight { color:#458588; }</style>
  </defs>
  <path class="ColorScheme-Text" transform="translate(-.8892 -1.0241) scale(.033735) translate(0 512) scale(.1 -.1)" d="m2309 4513c-1-5-1-12 0-16 3-18-43-86-66-96-13-6-104-33-202-61-97-27-185-52-196-56-20-7-20-6 0 10 11 9-14 0-55-21-52-27-99-62-159-121-51-50-87-78-91-71-4 6-19-9-35-36-20-34-30-44-38-36-17 17-24 14-37-19-7-16-17-30-22-30s7 30 26 67c20 37 36 74 36 81 0 8 28 41 61 73l61 59-59-40c-82-54-120-94-174-181-49-77-69-132-69-186 0-46-29-113-49-113-35 0-45 17-42 77 1 32 4 67 8 78 3 13 2 17-5 10-12-13-52-169-52-207 0-16 8-33 18-39 12-8 17-20 14-35-3-14 0-24 8-24 7 0 4-10-8-27-10-16-17-33-15-39s-15-25-37-43c-32-26-39-37-34-55 4-19-5-34-50-79-31-30-58-52-60-49-2 4-9 27-16 52l-12 45-14-30c-7-16-19-56-26-88s-17-59-23-59c-5-1-20 16-31 36-18 32-22 35-28 19-6-14-14-3-33 47-14 36-31 88-39 115-12 46-13 37-9-110 3-88 5-186 5-217 1-43 7-64 25-90 14-18 30-43 36-55 9-17 35-27 123-48 61-15 119-29 129-32 32-8 17 12-29 40-54 32-54 41 0 26 20-6 49-9 64-7 26 3 25 4-18 28l-45 25 45 3c68 4 80 11 45 27l-30 12 26 7c15 4 34 6 42 4 10-2 24 10 36 32 18 33 21 35 72 35 50 0 54 2 51 22-5 32 30 47 74 33 44-15 50-10 30 29-20 38-20 39 7 43 14 2 23 11 25 25 3 22 10 25 107 49 19 5 19 4 3-9-14-11-16-24-12-64 7-57-16-184-48-271-41-110-142-182-316-224-129-31-226-29-345 6-54 15-100 26-102 24-3-2 45-19 106-37 111-33 192-41 291-27 66 9 10-12-60-23-43-7-83-4-166 10-61 10-112 17-114 15-4-5 13-8 145-32 122-21 215-9 356 46 113 44 173 79 237 136 56 51 158 178 192 239l27 49 10-27c8-19 8-34 1-47-14-26-13-31 8-28 30 5 28-46-3-70-27-22-19-38 14-27 36 11 32-15-10-60-45-48-39-55 29-36 28 8 32 7 32-9 0-20-45-51-102-70-70-22-45-33 57-26 118 9 199 34 203 64 3 16 14 23 53 31 97 21 124 14 163-43 9-13 19-17 31-12 17 6 17 7 0 26-9 10-46 31-81 46-35 16-58 31-52 35s-7 19-33 37c-78 54-82 59-77 111 3 25 25 89 50 141 36 77 43 100 35 118-8 17-6 27 8 42 19 21 19 20 69-28 75-72 77-73 156-43 58 22 150 85 139 95-4 4-101-8-151-19-60-13-21 6 43 21 43 10 80 28 116 54 35 27 63 40 85 40l33 1-44 40c-25 22-78 56-119 76l-75 36-77-18c-42-10-83-15-91-12s-1 6 15 6c25 1 27 4 22 26-9 36 18 46 113 38 45-3 81-3 81 0 0 4-28 20-62 36-59 27-61 29-30 30 45 1 40 14-18 41-27 13-50 28-50 33s-20 7-47 5l-48-5 34 14c18 8 70 17 115 20 98 7 165-10 246-61 53-34 54-36 25-36l-30-1 30-22c54-40 135-120 135-133 0-8-15-4-45 13-26 14-45 20-45 13 0-6 18-38 41-71 50-74 78-136 79-170 0-16 7-30 18-34 16-6 16-7 0-16-15-8-18-24-18-85 0-48 4-73 10-69 13 8 13-46 0-79-5-14-7-26-5-26 8 0 35 58 45 97 9 36 9 36 7-17-4-62-42-155-87-212-17-20-30-39-30-41 0-3 16-1 36 3 36 8 64 4 64-9 0-4-11-18-25-31s-25-19-25-14-22-16-50-46c-27-30-49-49-50-42 0 8-17-8-39-35-21-27-53-62-72-77-19-16-33-36-31-46 3-17-37-46-158-113-70-39-164-102-140-94 8 3 91 37 183 77 176 75 230 89 105 27-159-79-380-196-429-228-66-42-47-50 29-12 31 15 61 30 67 32 10 4-44-41-87-72-17-13-12-12 19 3 41 19 116 34 235 46 51 5 57 8 49 23-18 32 4 45 91 52 46 4 84 6 86 4 2-1-31-20-72-40-42-21-74-40-72-44 3-4-51-25-119-46-69-21-123-41-120-43 2-2 50 10 107 26 57 17 119 34 138 38 53 10 72 23 35 25-29 1-29 1-5 8 14 5 39 15 55 23 17 9 55 19 85 22 30 4 82 18 115 30 64 26 306 86 342 86 12 0 25 5 28 11 5 7-30 9-108 7-63-2-119 1-124 5-11 12 17 30 81 52 53 18 56 18 75 1 18-17 21-16 63 10 23 15 85 47 136 70 52 23 96 44 98 47 2 2-39-5-92-15-54-10-99-17-101-14-2 2 46 21 107 41 60 21 110 42 110 46 0 11-66 23-85 15-9-3-13-2-10 4s23 10 44 10c27 0 45 7 62 24 13 13 52 38 87 55 43 22 62 37 62 50 0 28 44 76 90 99 37 18 38 20 18 25-13 3-54 9-93 13-81 8-120 23-65 25 19 0 46 5 60 9 24 8 24 8-7 9-64 2-46 27 33 47 19 5 23 3 18-10-8-20 33-36 89-35 23 1 33 4 22 6-26 7-45 22-45 37 0 6 32 28 72 49l72 37-50 1h-94c-53-2-40 13 28 30 41 11 52 22 32 34-17 10-11 25 13 36 12 5 32 16 45 23 22 13 22 13-15 20-61 10-106 7-135-8-24-13-28-12-45 6-12 14-14 22-7 25 7 2 10 13 7 23-5 18 0 20 41 20 25 0 46 4 46 10 0 5 18 14 41 20 53 14 46 21-25 21-31 1-54 5-51 9 7 11 87 30 127 30 56 0 65 17 13 24-25 4-62 16-80 28-29 17-40 18-68 9-44-15-139-19-143-6-2 6 20 17 48 25 53 15 53 15 50 53-3 31 0 37 16 37 10 0 19 7 19 15 0 10-10 15-30 15-17 0-60 6-96 13l-66 12 70 5c67 5 69 6 40 18-23 11-26 15-15 22 12 8 9 10-11 10-15 0-42 14-65 35-36 32-38 36-21 48 9 8 17 16 17 19 0 2-28 5-62 6-52 2-66 6-90 29-54 52-27 93 50 75 26-6 49-9 50-7 8 8-107 36-183 46-44 6-105 16-135 22l-55 12 220 10-75 27c-41 14-99 32-129 38-30 7-48 16-41 20s-1 10-22 14l-33 8 35 13c19 7 45 14 58 14 12 1 22 6 22 12 0 15-118 4-243-22-50-10-93-16-95-14s36 16 84 30c49 15 95 29 103 31 8 3 12 6 10 9-8 7-214 8-246 1-22-5-33-4-33 3 0 12 52 37 120 58l45 13-75-4c-41-2-91-11-110-19s-55-18-80-22-48-11-51-16-35-13-71-17c-55-7-76-16-134-56-38-26-55-36-39-21 26 22 82 61 161 112 23 15-106-31-150-54-17-8-46-27-65-40-30-23-32-24-22-5 6 11 19 24 28 27 10 4 32 23 48 43 28 35 29 36 5 21-56-36-177-107-206-122-17-9-41-32-55-51-13-20-27-36-31-36-20 0-2 51 31 93 16 20 2 23-19 5-8-7 3 6 25 30s63 56 92 72c93 53 67 52-36-2-106-54-225-145-236-179-7-21-39-55-69-71-29-16 27 80 85 146 27 30 49 59 49 65 0 5 15 21 33 35 43 33 252 130 324 151 95 27 180 80 203 126l20 39h-35c-19 0-36-3-36-7zm-109-519c-30-20-66-46-80-59-16-15-31-20-43-16-17 6-16 8 5 28 22 20 141 80 163 82 5 1-15-15-45-35zm-419-17c-10-26-29-43-38-34-3 3 5 20 17 37 25 36 35 34 21-3zm1349-21c0-9-30-14-35-6-4 6 3 10 14 10 12 0 21-2 21-4zm-622-46c19-4-6-9-78-14-58-4-136-14-174-22-38-7-72-12-74-10-6 6 77 48 113 57 32 8 170 2 213-11zm-984-61c-2-41-7-57-28-78s-26-23-26-8c0 13 49 137 54 137 1 0 1-23 0-51zm341-189c-31-61-32-80-2-81 12-1 2-5-23-9s-46-7-47-6 7 22 18 46c17 38 64 100 76 100 2 0-8-22-22-50zm-265-19c-17-27-42-57-56-66-34-22-104-46-104-36 0 21 47 64 99 91 32 15 63 35 70 44 25 30 21 16-9-33zm340-68c-1-5-7-19-15-33s-14-52-15-87c0-34-3-64-7-66-5-2-26-7-48-10-34-5-36-5-14 4 24 9 27 16 31 78 5 69 28 121 54 121 8 0 14-3 14-7zm1503-153c-3-13-14-20-29-20-32 0-40 18-12 29 36 15 47 13 41-9zm-1736-147c-3-10-5-2-5 17s2 27 5 18c2-10 2-26 0-35zm203 22c0-8-7-15-16-15-14 0-14 3-4 15 7 8 14 15 16 15s4-7 4-15zm1560-84c0-5-9-7-20-4s-20 7-20 9 9 4 20 4 20-4 20-9zm-1581-95c-28-13-35 1-13 25 17 19 19 19 25 2 4-12 1-21-12-27zm-938-20c-13-28-17-30-19-13-3 16 20 47 34 47 1 0-6-15-15-34zm2534 28c14-6 10-10-15-21-38-16-54-8-26 13 23 16 20 16 41 8zm-1575-104c0-9-32-30-46-30-4 0 1 9 11 20 19 21 35 26 35 10zm-5-90c3-5-8-16-24-25-46-23-60-18-26 10 33 27 41 29 50 15zm1430-27c-10-3-30-12-43-21-24-16-24-16-11 6 10 15 23 22 44 21s24-3 10-6zm-152-220c-13-2-35-2-50 0-16 2-5 4 22 4 28 0 40-2 28-4zm-530-297c-23-8-59-16-80-20l-38-6 45 20c25 10 61 19 80 19h35l-42-13zm-871 1963c-7-11-38-32-68-46-67-30-64-42 3-17 55 20 102 53 102 72 1 19-23 14-37-9zm1898-1395c-38-11-49-21-72-64-16-27-25-50-22-50 16 0 104 73 109 90 4 11 13 20 20 20 8 0 17 5 20 10 8 13 1 12-55-6zm-145-261c-9-16-33-43-53-61-36-32-36-33-7-19 17 8 53 30 81 48 28 19 59 39 70 45 15 9 10 11-28 12-40 2-48-1-63-25zm817-331c-103-103-210-206-237-228-28-21-51-43-52-47s-9-20-19-35c-17-26-17-27 2-12 83 63 206 170 292 254l102 100v-35-34l18 23c9 12 30 55 46 95 16 39 36 80 44 90 10 11 11 17 3 17-6 0-96-85-199-188zm-2009 153c-55-25-84-53-42-40 37 12 74 32 88 49 16 19 18 20-46-9zm1141 8c-69-4-72-5-114-48-24-25-38-45-31-45s3-9-10-20c-57-47 68 2 142 56 26 19 53 34 60 34 8 1 28 7 44 15 29 13 29 13 5 12-14 0-57-3-96-4zm-149-266c-100-19-122-27-166-67-24-22-41-40-36-40 7 0 247 100 256 107 11 8-8 8-54 0zm-830-22c-25-12-26-14-5-9 28 7 60 23 45 23-5 0-23-6-40-14zm1542-60c-32-24-82-51-112-60-30-8-55-20-55-25 0-6 21-10 48-10 44 1 51 5 122 70 85 78 83 90-3 25zm-1697-11c-102-22-288-84-302-101-12-15-8-16 40-10 54 6 54 6 40-16-17-25-111-85-148-93-14-3-61-24-105-47-451-230-706-349-445-207 52 28 84 48 70 45-70-19-334-186-371-235-34-45-65-75-151-150-42-36-75-66-73-68 1-1 32 8 69 22 82 31 80 24-30-93-54-57-83-81-100-81-25 0-43-26-70-103-8-22-35-76-60-120-32-56-43-82-35-90 7-7 12-5 17 9 21 56 148 228 224 304 71 71 175 153 214 169 5 2-44-57-109-130-133-151-217-271-245-355-11-32-20-58-20-60s32 8 72 22c93 31 107 30 38-3-57-27-63-30-81-32-19-2-119-104-119-122 0-10-8-20-18-22-9-3-3-5 14-6l31-1-19-39c-11-22-26-45-34-52-21-17-17-35 17-74 35-40 72-51 47-14-12 19-11 27 7 65 12 25 41 58 69 80 34 26 45 39 37 47-34 34 9 87 124 151 79 45 84 50 70 66-22 24-1 45 64 64 62 18 71 19 71 8 0-5-16-16-36-26-30-14-35-21-31-41 3-18 0-25-12-25-51-2-191-124-191-167 0-7 10-13 23-13 18-1 15-4-16-21-43-23-55-43-38-63 7-8 11-20 10-28-4-36 5-55 46-95 63-60 89-55 44 8-41 58 3 118 133 179l63 30h-42c-24 0-43 4-43 8 0 18 60 64 109 82 28 11 74 20 101 20 28 0 67 7 88 16 50 22 153 54 172 54 8-1-7-9-35-19-27-11-72-28-100-39-27-11-75-26-105-32-67-15-153-57-145-70 3-6 32-10 63-11l57-1-60-12c-84-17-108-32-101-61 4-15-2-37-14-58-14-23-17-38-11-42 6-3 50 15 98 41 108 57 175 70 346 66 73-1 127 2 127 7s-17 23-37 40c-32 26-34 31-17 31 12 0 35 5 53 11 37 13 41 41 9 63l-22 16h28c35 0 83-28 89-52 6-22-20-38-62-38-39 0-39-13-1-40 17-12 30-28 30-36 0-10 9-15 28-13 64 5 63-3-3-30-38-15-97-42-130-60l-60-32 65 6c176 14 407 25 725 35 411 11 473 15 705 40 96 10 208 21 249 24 237 20 667 134 994 265 86 35 132 39 158 15 17-15 24-11 108 67 50 46 89 85 87 87-3 2-62-22-133-53-226-100-424-174-468-175-39 0-121-9-193-20-56-9-80-9-102 0-21 9-55 9-137 1-105-11-109-11-125 10-20 24-38 26-118 15-54-7-56-7-70 19s-17 27-77 22c-49-4-63-2-63 9 0 8-10 14-22 14-25 1-17 6 128 81 38 20 114 71 169 113s102 76 106 76 9-10 13-22l6-23 15 22c20 29 67 133 59 133-3 0-49-35-102-78s-126-95-162-117c-81-48-80-47-80-42 0 3 71 56 158 117 86 62 182 133 212 159s73 58 96 73c22 14 76 66 120 114 43 48 129 143 191 210 229 251 428 503 410 520-3 3-35-39-71-93-84-126-220-279-342-385-52-46-144-128-203-183-60-55-159-135-222-178s-150-102-193-132c-74-51-384-222-469-259-20-9-53-23-73-32-20-8-33-10-29-5 10 17 6 15-137-48-137-61-432-165-450-159-5 2 16 12 48 21 124 38 294 102 421 158 80 35 140 56 150 52s14-2 10 4 55 41 146 86c84 42 165 87 180 101s57 45 94 70c38 24 82 56 98 70l30 26-44-15c-24-8-53-15-65-15-16 0-25-10-34-34-15-39-36-55-112-83-57-21-207-49-215-41-15 14 250 228 290 234 25 4 78 46 190 152 136 128 244 251 245 276 0 16-3 17-12 8-7-7-16-12-22-12-20 0 33 46 124 105 85 56 197 154 145 127-11-6-27-13-35-16s-45-30-82-58c-128-101-136-93-20 21 61 61 112 113 112 117 0 7-73-49-125-96-22-20-58-50-80-66l-40-28 30 34c33 36 27 33-86-51-107-81-207-144-272-173-31-14-57-23-57-21s27 20 60 40 60 41 60 46c0 6-3 8-7 6-5-2-46-26-93-52-87-50-150-94-150-107 0-5 10-8 22-8 19 0 17-4-16-26-69-47-152-91-205-109-28-9-49-21-45-26 9-16-93-114-157-150-34-19-105-73-158-120-131-116-248-210-330-264-89-59-101-58-20 1 71 52 149 118 282 237 84 77 110 110 66 86-37-20 47 72 101 111 27 19 51 42 53 51 4 17 148 122 188 138 21 9 22 10 4 10-11 1-58-22-105-50-86-52-232-122-196-94 20 15 20 15 0 15-10 0-36-4-56-9-21-5-36-5-33-1 10 16 183 108 228 121 26 7 47 17 47 21s30 40 68 82c37 41 78 87 92 103 14 15 61 54 103 87 43 32 76 60 74 62-3 3-28-9-56-26-29-17-50-26-46-20 8 14-24 1-55-22-14-10-35-20-46-22-37-7-118-53-144-81-33-36-125-90-178-106-36-10-45-10-52 1-4 7-15 10-23 7-11-4-14-2-10 9 5 14 2 14-28 1-70-30-86-36-179-66-52-16-120-35-150-40-30-6-84-18-120-26s-92-20-125-26c-70-13-88-25-51-35 16-4 26-13 26-24 0-21-72-90-157-150-35-24-63-48-63-52 0-13-22-9-41 8-10 9-16 21-14 27 2 7 6 24 9 39s40 70 81 122c41 53 70 96 65 96s-24-6-42-14-60-22-93-31-103-35-155-57c-129-55-147-61-135-49 16 16 234 130 261 137 14 4 31 15 37 26 16 26 175 120 267 158 40 17 76 33 79 36 11 11-73-9-144-33-38-13-99-27-135-30-42-4-92-18-143-40-74-32-104-39-75-16 40 32 119 83 128 83 19 0 10 18-11 23-13 4-55-9-108-33-152-67-184-80-188-77-5 6 89 66 205 131 56 32 100 61 97 64-9 9 79 60 250 145 197 97 342 187 320 199-12 7-11 12 7 33 15 18 45 29 114 45 52 12 94 24 94 26 0 7-31 3-100-12zm645-440c-30-25-169-94-150-75 11 11 165 98 175 99 3 1-8-10-25-24zm365-214c0-5-19-19-42-31-45-22-43-18 6 19 32 25 36 26 36 12zm-2-63c-43-63-94-113-164-160-69-46-91-57-79-37 12 19-26 10-58-14-33-25-117-69-117-62s224 172 300 221c41 26 77 51 80 54 9 13 54 41 58 37 2-3-7-20-20-39zm-772-16c-9-14-96-63-107-59-5 2 17 17 48 35 66 36 66 36 59 24zm-186-121c0-8-51-40-65-40-12 0-4 24 13 36 20 16 52 18 52 4zm491-304c-12-15-114-66-131-66-19 0-10 29 12 41 21 11 100 36 122 38 5 1 3-5-3-13zm-1308-72c76-19 113-38 127-64 9-17 6-20-29-30-49-13-71-5-71 26 0 28-27 54-73 71s-24 15 46-3zm1437-169c0-16-30-35-54-35-26 0-18 28 12 38 38 14 42 14 42-3zm-795-105c-11-5-27-9-35-9-9 0-8 4 5 9 11 5 27 9 35 9 9 0 8-4-5-9zm-70-20c-11-5-27-9-35-9-9 0-8 4 5 9 11 5 27 9 35 9 9 0 8-4-5-9zm-393 1364c-35-20-61-38-59-41 7-7 101 43 116 61 18 22 15 21-57-20zm-27-52c-74-33-85-40-85-54 0-9 123 53 145 73 14 14 6 11-60-19zm167-103c-18-12-31-24-28-26 5-5 66 35 66 43 0 6-3 5-38-17zm1148-19c-14-10-22-21-19-24s16 5 29 19c28 30 24 32-10 5zm-357-212c-18-6-33-15-33-19 0-15 23-10 55 11 33 22 27 24-22 8zm-2047-853c-20-25-23-35-12-35 13 0 51 59 42 67-2 2-15-12-30-32z" fill="currentColor" stroke="currentColor" stroke-width="150" stroke-linejoin="round"/>
</svg>
